<?xml version="1.0" encoding="utf-8"?>
<!-- Generator: Adobe Illustrator 19.1.0, SVG Export Plug-In . SVG Version: 6.00 Build 0)  -->
<svg version="1.1" id="Слой_1" xmlns="http://www.w3.org/2000/svg" xmlns:xlink="http://www.w3.org/1999/xlink" x="0px" y="0px" width="146px" height="30px"
	 viewBox="-376.2 524.6 170.4 35" style="enable-background:new -376.2 524.6 170.4 35;" xml:space="preserve">
<style type="text/css">
	.st0{fill:none;stroke:#FFFFFF;stroke-width:3;stroke-miterlimit:10;}
	.st1{fill:#FFEEDE;}
	.st2{fill:#FFFFFF;}
</style>
<g id="Layer_2">
</g>
<path class="st0" d="M-365.1,555.9c1.8,1.4,3.4,2.2,6.5,2.2c3.2,0,5.8-0.9,8.5-3.8c0.1-0.1,1.2-1.4,1.2-1.4s2.2-3.7,2.8-5.8
	c0,0,0,0,0-0.1v0.1l0,0c1.1,0,2-0.5,2.8-1.3c0.7-0.8,1.1-1.8,1.1-2.9l0,0v-0.1c0-1.1-0.5-2.1-1.2-2.8c-0.7-0.7-1.5-1.1-2.3-1.2
	c-1.3-7.3-6.5-12.7-12.7-12.7c-6.4,0-11.8,5.7-12.8,13.3c-1,0.1-1.8,0.6-2.4,1.3c-0.7,0.8-1.1,1.8-1.1,2.9l0,0c0,0.1,0,0.1,0,0.2
	c0.1,2.2,1.8,4,4,4h0.1v-0.1c0.6,2,2,4.6,2.8,5.5C-367.6,553.8-366.7,554.9-365.1,555.9z"/>
<path class="st1" d="M-346.3,547.3L-346.3,547.3L-346.3,547.3C-346.3,547.2-346.3,547.2-346.3,547.3z"/>
<path class="st1" d="M-358.6,528c-6.2,0-11.3,6.4-11.3,14.3c0,4.4,1.6,8.3,4,10.9c0.5,0.5,1,1,1.6,1.4l0,0c0.2,0.2,0.5,0.3,0.7,0.5
	c-0.1-0.2-0.1-0.3-0.2-0.5c-0.1-0.4-0.2-0.8-0.3-1.2c0-0.2,0-0.4,0-0.6c0-0.9,0.3-1.7,0.7-2.5c0.2-0.3,0.4-0.6,0.6-0.9
	c0.6-0.7,1.4-1.3,2.2-1.6c0.7-0.3,1.5-0.4,2.2-0.4c1.1,0,2.1,0.3,3,0.8c0.7,0.4,1.3,0.9,1.7,1.5c0.1,0.1,0.1,0.2,0.2,0.3
	c0.5,0.8,0.9,1.7,0.9,2.8c0,0.4-0.1,0.9-0.2,1.3c0,0.2-0.1,0.4-0.2,0.5c0,0.1-0.1,0.2-0.1,0.3c0.1-0.1,0.2-0.2,0.3-0.2l0,0
	c0.5-0.4,1.1-0.9,1.5-1.4c2.4-2.6,4-6.5,4-10.9C-347.3,534.4-352.4,528-358.6,528z"/>
<path class="st1" d="M-355.7,550c-0.1-0.1-0.1-0.1-0.2-0.2c-0.7-0.6-1.7-0.9-2.6-0.9c-0.8,0-1.5,0.2-2.1,0.6
	c-0.3,0.2-0.6,0.4-0.9,0.7c-0.4,0.4-0.8,1-1,1.5c-0.1,0.3-0.2,0.7-0.2,1.1c0,0.7,0.2,1.3,0.5,1.7c0.7,1.2,2,1.9,3.6,1.9
	s2.9-0.8,3.6-2c0.3-0.5,0.5-1.2,0.5-1.7c0-0.4-0.1-0.9-0.2-1.3C-354.8,550.9-355.2,550.4-355.7,550z"/>
<polygon points="-356.9,544.6 -356.9,544.4 -360.4,544.4 -360.4,544.6 -360.4,546.1 -356.9,546.1 "/>
<path d="M-363.8,542.2c-0.4,0-0.7,0.2-0.9,0.5c-0.1,0.2-0.2,0.4-0.2,0.7c0,0.6,0.5,1.2,1.1,1.2s1.1-0.5,1.1-1.2
	c0-0.3-0.1-0.5-0.2-0.7C-363.1,542.4-363.4,542.2-363.8,542.2z"/>
<path d="M-353.9,541.9c-0.4,0-0.8,0.3-1,0.7c-0.1,0.2-0.1,0.3-0.1,0.5c0,0.6,0.5,1.2,1.1,1.2s1.1-0.5,1.1-1.2c0-0.2,0-0.3-0.1-0.5
	C-353.1,542.1-353.5,541.9-353.9,541.9z"/>
<rect id="rightBrow" x="-366.6" y="537.4" transform="matrix(-0.9974 7.141016e-02 -7.141016e-02 -0.9974 -688.2967 1101.0627)" width="5.6" height="1.7"/>
<rect x="-356.3" y="537.7" transform="matrix(0.9971 7.649309e-02 -7.649309e-02 0.9971 40.1624 28.6151)" width="5.6" height="1.7"/>
<path d="M-359,552.8c0.2,0,0.3,0,0.5,0c0.2,0,0.4,0,0.6-0.1c1-0.3,1.7-1.2,1.7-2.2h-0.3h-4.3l0,0C-360.7,551.8-360,552.6-359,552.8z
	"/>
<path d="M-365.1,555.9c1.8,1.4,3.4,2.2,6.5,2.2c3.2,0,5.8-0.9,8.5-3.8c0.1-0.1,1.2-1.4,1.2-1.4s2.2-3.7,2.8-5.8c0,0,0,0,0-0.1v0.1
	l0,0c1.1,0,2-0.5,2.8-1.3c0.7-0.8,1.1-1.8,1.1-2.9l0,0v-0.1c0-1.1-0.5-2.1-1.2-2.8c-0.7-0.7-1.5-1.1-2.3-1.2
	c-1.3-7.3-6.5-12.7-12.7-12.7c-6.4,0-11.8,5.7-12.8,13.3c-1,0.1-1.8,0.6-2.4,1.3c-0.7,0.8-1.1,1.8-1.1,2.9l0,0c0,0.1,0,0.1,0,0.2
	c0.1,2.2,1.8,4,4,4h0.1v-0.1c0.6,2,2,4.6,2.8,5.5C-367.7,553.8-366.7,554.9-365.1,555.9z M-358.6,528c6.2,0,11.3,6.4,11.3,14.3
	c0,4.4-1.6,8.3-4,10.9c-0.5,0.5-1,1-1.5,1.4l0,0c-0.1,0.1-0.2,0.2-0.3,0.2c0-0.1,0.1-0.2,0.1-0.3c0.1-0.2,0.1-0.3,0.2-0.5
	c0.1-0.4,0.2-0.8,0.2-1.3c0-1.1-0.3-1.9-0.9-2.8c-0.1-0.1-0.1-0.2-0.2-0.3c-0.5-0.6-1-1.1-1.7-1.5c-0.9-0.5-1.9-0.8-3-0.8
	c-0.8,0-1.6,0.2-2.2,0.4c-0.9,0.4-1.7,0.9-2.2,1.6c-0.2,0.3-0.4,0.6-0.6,0.9c-0.4,0.8-0.7,1.7-0.7,2.5c0,0.2,0,0.4,0,0.6
	c0.1,0.4,0.1,0.8,0.3,1.2c0.1,0.2,0.1,0.3,0.2,0.5c-0.2-0.2-0.5-0.3-0.7-0.5l0,0c-0.6-0.4-1.1-0.9-1.6-1.4c-2.4-2.6-4-6.5-4-10.9
	C-369.9,534.4-364.8,528-358.6,528z M-362.6,552.7c0-0.4,0.1-0.7,0.2-1.1c0.2-0.6,0.5-1.1,1-1.5c0.3-0.3,0.6-0.5,0.9-0.7
	c0.6-0.4,1.4-0.6,2.1-0.6c1,0,1.9,0.4,2.6,0.9c0.1,0.1,0.1,0.1,0.2,0.2c0.5,0.4,0.8,0.9,1,1.5c0.1,0.4,0.2,0.8,0.2,1.3
	c0,0.7-0.2,1.3-0.5,1.7c-0.7,1.2-2,2-3.6,2s-2.9-0.8-3.6-1.9C-362.4,554-362.6,553.3-362.6,552.7z M-345.6,540.9L-345.6,540.9
	c0.2,0,0.5,0.1,0.7,0.3c0.1,0.1,0.1,0.1,0.2,0.2c0.4,0.5,0.7,1.1,0.7,1.7v0.1c0,0.6-0.2,1.2-0.6,1.6c-0.3,0.3-0.7,0.6-1.1,0.7
	c0.2-1,0.3-2,0.3-3.1C-345.6,541.8-345.6,541.4-345.6,540.9L-345.6,540.9z M-373.2,543.7L-373.2,543.7c0-0.7,0.2-1.3,0.6-1.7
	c0.1-0.1,0.2-0.2,0.3-0.3c0.2-0.2,0.5-0.3,0.7-0.4v0.1l0,0c0,0.2,0,0.5,0,0.7c0,1.3,0.1,2.5,0.4,3.7
	C-372.3,545.7-373.2,544.9-373.2,543.7z"/>
<g>
	<path class="st2" d="M-334.4,543.8c0-3.9,3-7.1,7.2-7.1c4,0,6.9,2.9,6.9,7.5v0.9h-9.6c0.3,1.3,1.4,2.4,3.4,2.4c1,0,2.6-0.4,3.4-1.1
		l1.8,2.7c-1.3,1.2-3.6,1.8-5.7,1.8C-331.1,550.9-334.4,548.2-334.4,543.8z M-327.2,540.1c-1.9,0-2.6,1.3-2.8,2.3h5.6
		C-324.5,541.4-325.2,540.1-327.2,540.1z"/>
	<path class="st2" d="M-318.5,554l1.9-3.1c1,1.1,2.5,1.6,4.1,1.6c1.4,0,3.4-0.6,3.4-3.1v-1c-1.1,1.3-2.5,2-4,2c-3.3,0-6-2.3-6-6.8
		c0-4.4,2.6-6.8,6-6.8c1.5,0,2.9,0.6,4,1.9v-1.6h4.3v12.3c0,5.5-4.4,6.7-7.7,6.7C-314.8,556.1-316.8,555.5-318.5,554z M-309.1,545.3
		v-3.6c-0.5-0.7-1.7-1.2-2.6-1.2c-1.7,0-3,1-3,3c0,2,1.3,3,3,3C-310.7,546.6-309.6,546.1-309.1,545.3z"/>
	<path class="st2" d="M-302.8,554l1.9-3.1c1,1.1,2.5,1.6,4.1,1.6c1.4,0,3.4-0.6,3.4-3.1v-1c-1.1,1.3-2.5,2-4,2c-3.3,0-6-2.3-6-6.8
		c0-4.4,2.6-6.8,6-6.8c1.5,0,2.9,0.6,4,1.9v-1.6h4.3v12.3c0,5.5-4.4,6.7-7.7,6.7C-299.1,556.1-301,555.5-302.8,554z M-293.3,545.3
		v-3.6c-0.5-0.7-1.7-1.2-2.6-1.2c-1.7,0-3,1-3,3c0,2,1.3,3,3,3C-295,546.6-293.9,546.1-293.3,545.3z"/>
	<path class="st2" d="M-278.3,550.6v-7.9c0-1.7-0.9-2.2-2.2-2.2c-1.3,0-2.1,0.7-2.6,1.3v8.7h-4.3v-18.7h4.3v6.8c0.8-1,2.4-2,4.7-2
		c3.1,0,4.5,1.7,4.5,4.2v9.6H-278.3z"/>
	<path class="st2" d="M-272.5,543.8c0-3.9,3-7.1,7.2-7.1c4,0,6.9,2.9,6.9,7.5v0.9h-9.6c0.3,1.3,1.4,2.4,3.4,2.4c1,0,2.6-0.4,3.4-1.1
		l1.8,2.7c-1.3,1.2-3.6,1.8-5.7,1.8C-269.3,550.9-272.5,548.2-272.5,543.8z M-265.3,540.1c-1.9,0-2.6,1.3-2.8,2.3h5.6
		C-262.7,541.4-263.4,540.1-265.3,540.1z"/>
	<path class="st2" d="M-248.3,550.6v-1.3c-0.8,1-2.5,1.7-4.2,1.7c-2.1,0-4.6-1.4-4.6-4.4c0-3.3,2.6-4.3,4.6-4.3
		c1.8,0,3.4,0.6,4.2,1.6v-1.6c0-1.2-1-2-2.7-2c-1.3,0-2.7,0.5-3.8,1.4l-1.5-2.7c1.7-1.5,4.1-2.1,6.1-2.1c3.2,0,6.3,1.2,6.3,5.4v8.4
		H-248.3z M-248.3,547.1v-1.2c-0.4-0.6-1.5-1-2.4-1c-1.1,0-2.2,0.5-2.2,1.6s1,1.6,2.2,1.6C-249.8,548.1-248.8,547.8-248.3,547.1z"/>
	<path class="st2" d="M-232.3,550.6V549c-1.1,1.3-2.5,1.9-4,1.9c-3.3,0-6-2.5-6-7.1c0-4.4,2.6-7.1,6-7.1c1.5,0,2.9,0.6,4,1.9v-6.7
		h4.3v18.7H-232.3z M-232.3,545.9v-4.1c-0.6-0.7-1.7-1.2-2.6-1.2c-1.7,0-3,1.3-3,3.3c0,2,1.3,3.3,3,3.3
		C-234,547.1-232.9,546.6-232.3,545.9z"/>
	<path class="st2" d="M-225.2,549.6c0-0.6,0.5-1.2,1.2-1.2c0.6,0,1.2,0.5,1.2,1.2s-0.5,1.2-1.2,1.2
		C-224.7,550.8-225.2,550.3-225.2,549.6z"/>
	<path class="st2" d="M-220.3,537.9c0-0.6,0.5-1.1,1-1.1c0.6,0,1.1,0.5,1.1,1.1c0,0.6-0.5,1-1.1,1
		C-219.8,539-220.3,538.5-220.3,537.9z M-220,550.6v-10.1h1.6v10.1H-220z"/>
	<path class="st2" d="M-215.9,545.5c0-2.9,1.9-5.3,5-5.3s5,2.4,5,5.3c0,2.9-1.9,5.3-5,5.3S-215.9,548.4-215.9,545.5z M-207.5,545.5
		c0-2.1-1.2-3.9-3.4-3.9c-2.2,0-3.4,1.8-3.4,3.9c0,2.1,1.2,3.9,3.4,3.9C-208.7,549.4-207.5,547.6-207.5,545.5z"/>
</g>
<path class="st1" d="M-344.6,544.9c0.4-0.4,0.6-1,0.6-1.6v-0.1c0-0.7-0.3-1.3-0.7-1.7c-0.1-0.1-0.1-0.1-0.2-0.2
	c-0.2-0.2-0.4-0.3-0.7-0.4v0.1c0,0,0,0,0,0.1c0,0.4,0,0.4,0,0.8c0.1,0.7,0,2.5-0.2,3.6C-345.2,545.4-344.9,545.2-344.6,544.9z"/>
<path class="st1" d="M-371.6,541.5L-371.6,541.5c0-0.1,0-0.1,0-0.2c-0.3,0.1-0.5,0.2-0.7,0.4c-0.1,0.1-0.2,0.2-0.3,0.3
	c-0.4,0.5-0.6,1.1-0.6,1.7l0,0c0,1.2,0.9,2,2,2.1c-0.2-1.2-0.4-2-0.4-3.3C-371.5,542.3-371.6,541.8-371.6,541.5z"/>
</svg>
