<svg id="Layer_1" xmlns="http://www.w3.org/2000/svg" xmlns:xlink="http://www.w3.org/1999/xlink" width="185" height="188" viewBox="-205 326.9 185 188"><style>.st0{enable-background:new ;} .st1{fill:#E62734;} .st2{fill:#FFFFFF;} .st3{fill:none;stroke:#FFFFFF;stroke-miterlimit:10;} .st4{clip-path:url(#SVGID_2_);} .st5{fill:#B92731;} .st6{fill:#CCCCCC;} .st7{fill:none;stroke:#CDCCCC;stroke-miterlimit:10;} .st8{clip-path:url(#SVGID_4_);} .st9{clip-path:url(#SVGID_6_);} .st10{font-family:&apos;Montserrat-Bold&apos;;} .st11{font-size:9.9789px;} .st12{letter-spacing:3;} .st13{clip-path:url(#SVGID_8_);} .st14{clip-path:url(#SVGID_10_);}</style><g><g class="st0"><path d="M-129.4 357.6l-1.2-2.9h-5.6l-1.2 2.9h-3.2l5.8-13.4h2.9l5.8 13.4h-3.3zm-4-9.4l-1.7 3.9h3.4l-1.7-3.9zM-115.3 344.2h3v13.4h-3l-6.4-8.4v8.4h-3v-13.4h2.8l6.6 8.6v-8.6zM-100.3 350.8h3v4.8c-1.3 1.5-3.2 2.2-5.5 2.2-2 0-3.6-.7-5-2-1.3-1.3-2-2.9-2-4.9s.7-3.6 2-5c1.4-1.3 3-2 4.9-2s3.6.6 5 1.9l-1.6 2.2c-.6-.5-1.2-.9-1.7-1.1-.5-.2-1-.3-1.6-.3-1.1 0-2.1.4-2.9 1.2-.8.8-1.2 1.8-1.2 3.1s.4 2.3 1.1 3c.7.8 1.6 1.1 2.7 1.1 1 0 1.9-.2 2.6-.6v-3.6zM-91.1 354.2c.5.6 1.2.9 2 .9s1.5-.3 2-.9c.5-.6.7-1.5.7-2.5v-7.4h3v7.5c0 1.9-.5 3.4-1.6 4.5-1.1 1-2.4 1.6-4.1 1.6s-3-.5-4.1-1.6-1.6-2.5-1.6-4.5v-7.5h3v7.4c0 1 .2 1.8.7 2.5zM-80.2 357.6v-13.4h3V355h5.7v2.7h-8.7zM-59.8 357.6l-1.2-2.9h-5.6l-1.2 2.9H-71l5.8-13.4h2.9l5.8 13.4h-3.3zm-4.1-9.4l-1.7 3.9h3.4l-1.7-3.9zM-44.2 348.7c0 2.1-.8 3.5-2.5 4.2l3.4 4.8H-47l-3-4.3h-2.1v4.3h-3v-13.4h5.1c2.1 0 3.6.4 4.5 1.1.8.6 1.3 1.7 1.3 3.3zm-3.6 1.6c.4-.3.6-.9.6-1.6 0-.7-.2-1.2-.6-1.5-.4-.3-1.1-.4-2-.4H-52v4h2.2c.9 0 1.6-.2 2-.5z"/></g><g class="st0"><path d="M-109.6 369.5c.8 0 1.4-.3 1.9-.9l1 1c-.8.9-1.7 1.3-2.8 1.3s-2-.3-2.7-1c-.7-.7-1-1.5-1-2.6 0-1 .4-1.9 1.1-2.6.7-.7 1.6-1 2.6-1 1.1 0 2.1.4 2.9 1.3l-1 1.1c-.5-.6-1.1-.9-1.8-.9-.6 0-1.1.2-1.5.6-.4.4-.6.9-.6 1.5s.2 1.2.6 1.6.8.6 1.3.6zM-96.6 370.9l-.6-1.5h-2.9l-.6 1.5h-1.7l3-7h1.5l3 7h-1.7zm-2.1-4.9l-.9 2h1.7l-.8-2zM-83.8 366.5l-1.9 3.8h-.9l-1.9-3.8v4.4h-1.6v-7h2.1l1.8 3.8 1.8-3.8h2.1v7h-1.6v-4.4zM-71.8 364.5c.5.4.7 1.1.7 1.9s-.3 1.5-.8 1.9c-.5.4-1.3.6-2.3.6h-.8v1.9h-1.6v-7h2.5c1.1.1 1.8.3 2.3.7zm-1.1 2.8c.2-.2.3-.5.3-.9s-.1-.7-.4-.9-.6-.3-1.1-.3h-.9v2.3h1c.5.1.9 0 1.1-.2z"/></g><g><g><path class="st1" d="M-155.3 343.6l-20.6-7.2v42.8l17.4-9.4z"/><path class="st1" d="M-195.7 343.6l19.8-7.2v42.9l-16.6-9.3z"/><g><g><path class="st2" d="M-175.9 334l-22 8 3.5 29.4 18.5 10.3 19.3-10.5 3.6-29.2-22.9-8zm17.3 35.8l-17.4 9.4-16.6-9.2-3.2-26.4 19.7-7.2 20.6 7.2-3.1 26.2z"/></g></g></g><g id="XMLID_23_"><path id="XMLID_25_" class="st3" d="M-175.9 367.6h-12.3l6.1-12.1 6.2-12 12.4 24.1z"/><path id="XMLID_130_" class="st3" d="M-177.8 339.8l1.9 3.7"/><path id="XMLID_131_" class="st3" d="M-173.9 339.8l-2 3.7"/><path id="XMLID_24_" class="st3" d="M-175.9 364.3h-5.9l3-5.8 2.9-5.8 6 11.6z"/></g><g><g><defs><path id="SVGID_1_" d="M-194.5 336.7h18.6v32.7h-18.6z"/></defs><clipPath id="SVGID_2_"><use xlink:href="#SVGID_1_" overflow="visible"/></clipPath><g id="XMLID_2_" class="st4"><path id="XMLID_22_" class="st3" d="M-175.9 367.6h-12.3l6.1-12.1 6.2-12 12.4 24.1z"/><path id="XMLID_21_" class="st3" d="M-177.8 339.8l1.9 3.7"/><path id="XMLID_20_" class="st3" d="M-173.9 339.8l-2 3.7"/><path id="XMLID_19_" class="st3" d="M-175.9 364.3h-5.9l3-5.8 2.9-5.8 6 11.6z"/></g></g></g></g></g><g><g class="st0"><path d="M-129.4 420.3l-1.2-2.9h-5.6l-1.2 2.9h-3.2l5.8-13.4h2.9l5.8 13.4h-3.3zm-4-9.4l-1.7 3.9h3.4l-1.7-3.9zM-115.3 406.9h3v13.4h-3l-6.4-8.4v8.4h-3v-13.4h2.8l6.6 8.6v-8.6zM-100.3 413.5h3v4.8c-1.3 1.5-3.2 2.2-5.5 2.2-2 0-3.6-.7-5-2-1.3-1.3-2-2.9-2-4.9s.7-3.6 2-5c1.4-1.3 3-2 4.9-2s3.6.6 5 1.9l-1.6 2.2c-.6-.5-1.2-.9-1.7-1.1-.5-.2-1-.3-1.6-.3-1.1 0-2.1.4-2.9 1.2-.8.8-1.2 1.8-1.2 3.1s.4 2.3 1.1 3c.7.8 1.6 1.1 2.7 1.1 1 0 1.9-.2 2.6-.6v-3.6zM-91.1 416.8c.5.6 1.2.9 2 .9s1.5-.3 2-.9c.5-.6.7-1.5.7-2.5v-7.4h3v7.5c0 1.9-.5 3.4-1.6 4.5-1.1 1-2.4 1.6-4.1 1.6s-3-.5-4.1-1.6-1.6-2.5-1.6-4.5v-7.5h3v7.4c0 1.1.2 1.9.7 2.5zM-80.2 420.3v-13.4h3v10.7h5.7v2.7h-8.7zM-59.8 420.3l-1.2-2.9h-5.6l-1.2 2.9H-71l5.8-13.4h2.9l5.8 13.4h-3.3zm-4.1-9.4l-1.7 3.9h3.4l-1.7-3.9zM-44.2 411.3c0 2.1-.8 3.5-2.5 4.2l3.4 4.8H-47l-3-4.3h-2.1v4.3h-3v-13.4h5.1c2.1 0 3.6.4 4.5 1.1.8.7 1.3 1.8 1.3 3.3zm-3.6 1.6c.4-.3.6-.9.6-1.6 0-.7-.2-1.2-.6-1.5-.4-.3-1.1-.4-2-.4H-52v4h2.2c.9 0 1.6-.1 2-.5z"/></g><g class="st0"><path d="M-109.6 432.2c.8 0 1.4-.3 1.9-.9l1 1c-.8.9-1.7 1.3-2.8 1.3s-2-.3-2.7-1c-.7-.7-1-1.5-1-2.6 0-1 .4-1.9 1.1-2.6.7-.7 1.6-1 2.6-1 1.1 0 2.1.4 2.9 1.3l-1 1.1c-.5-.6-1.1-.9-1.8-.9-.6 0-1.1.2-1.5.6-.4.4-.6.9-.6 1.5s.2 1.2.6 1.6.8.6 1.3.6zM-96.6 433.6l-.6-1.5h-2.9l-.6 1.5h-1.7l3-7h1.5l3 7h-1.7zm-2.1-4.9l-.9 2h1.7l-.8-2zM-83.8 429.2l-1.9 3.8h-.9l-1.9-3.8v4.4h-1.6v-7h2.1l1.8 3.8 1.8-3.8h2.1v7h-1.6v-4.4zM-71.8 427.2c.5.4.7 1.1.7 1.9s-.3 1.5-.8 1.9c-.5.4-1.3.6-2.3.6h-.8v1.9h-1.6v-7h2.5c1.1.1 1.8.3 2.3.7zm-1.1 2.8c.2-.2.3-.5.3-.9s-.1-.7-.4-.9-.6-.3-1.1-.3h-.9v2.3h1c.5.1.9 0 1.1-.2z"/></g><g><g><path class="st5" d="M-155.3 406.2l-20.6-7.1v42.8l17.4-9.4z"/><path class="st1" d="M-195.7 406.3l19.8-7.2v42.8l-16.6-9.2z"/><g><g><path class="st6" d="M-175.9 396.7l-22 8 3.5 29.4 18.5 10.3 19.3-10.5 3.6-29.2-22.9-8zm17.3 35.8l-17.4 9.4-16.6-9.2-3.2-26.4 19.7-7.2 20.6 7.2-3.1 26.2z"/></g></g></g><g id="XMLID_8_"><path id="XMLID_27_" class="st7" d="M-175.9 430.2h-12.3l6.1-12 6.2-12 12.4 24z"/><path id="XMLID_26_" class="st7" d="M-177.8 402.4l1.9 3.8"/><path id="XMLID_11_" class="st7" d="M-173.9 402.4l-2 3.8"/><path id="XMLID_9_" class="st7" d="M-175.9 427h-5.9l3-5.8 2.9-5.8 6 11.6z"/></g><g><g><defs><path id="SVGID_3_" d="M-194.5 399.4h18.6v32.7h-18.6z"/></defs><clipPath id="SVGID_4_"><use xlink:href="#SVGID_3_" overflow="visible"/></clipPath><g id="XMLID_1_" class="st8"><path id="XMLID_7_" class="st3" d="M-175.9 430.2h-12.3l6.1-12 6.2-12 12.4 24z"/><path id="XMLID_6_" class="st3" d="M-177.8 402.4l1.9 3.8"/><path id="XMLID_5_" class="st3" d="M-173.9 402.4l-2 3.8"/><path id="XMLID_4_" class="st3" d="M-175.9 427h-5.9l3-5.8 2.9-5.8 6 11.6z"/></g></g></g></g><g><g><path class="st1" d="M-155.3 406.6l-20.6-7.2v42.8l17.4-9.4z"/><path class="st1" d="M-195.7 406.6l19.8-7.2v42.9l-16.6-9.3z"/><g><g><path class="st2" d="M-175.9 397l-22 8 3.5 29.4 18.5 10.3 19.3-10.5 3.6-29.2-22.9-8zm17.3 35.8l-17.4 9.4-16.6-9.2-3.2-26.4 19.7-7.2 20.6 7.2-3.1 26.2z"/></g></g></g><g id="XMLID_35_"><path id="XMLID_39_" class="st3" d="M-175.9 430.6h-12.3l6.1-12.1 6.2-12 12.4 24.1z"/><path id="XMLID_38_" class="st3" d="M-177.8 402.8l1.9 3.7"/><path id="XMLID_37_" class="st3" d="M-173.9 402.8l-2 3.7"/><path id="XMLID_36_" class="st3" d="M-175.9 427.3h-5.9l3-5.8 2.9-5.8 6 11.6z"/></g><g><g><defs><path id="SVGID_5_" d="M-194.5 399.7h18.6v32.7h-18.6z"/></defs><clipPath id="SVGID_6_"><use xlink:href="#SVGID_5_" overflow="visible"/></clipPath><g id="XMLID_18_" class="st9"><path id="XMLID_34_" class="st3" d="M-175.9 430.6h-12.3l6.1-12.1 6.2-12 12.4 24.1z"/><path id="XMLID_31_" class="st3" d="M-177.8 402.8l1.9 3.7"/><path id="XMLID_30_" class="st3" d="M-173.9 402.8l-2 3.7"/><path id="XMLID_28_" class="st3" d="M-175.9 427.3h-5.9l3-5.8 2.9-5.8 6 11.6z"/></g></g></g></g></g><g><g class="st0"><path class="st2" d="M-129.4 483.6l-1.2-2.9h-5.6l-1.2 2.9h-3.2l5.8-13.4h2.9l5.8 13.4h-3.3zm-4-9.4l-1.7 3.9h3.4l-1.7-3.9zM-115.3 470.3h3v13.4h-3l-6.4-8.4v8.4h-3v-13.4h2.8l6.6 8.6v-8.6zM-100.3 476.8h3v4.8c-1.3 1.5-3.2 2.2-5.5 2.2-2 0-3.6-.7-5-2-1.3-1.3-2-2.9-2-4.9s.7-3.6 2-5c1.4-1.3 3-2 4.9-2s3.6.6 5 1.9l-1.6 2.2c-.6-.5-1.2-.9-1.7-1.1-.5-.2-1-.3-1.6-.3-1.1 0-2.1.4-2.9 1.2-.8.8-1.2 1.8-1.2 3.1s.4 2.3 1.1 3c.7.8 1.6 1.1 2.7 1.1 1 0 1.9-.2 2.6-.6v-3.6zM-91.1 480.2c.5.6 1.2.9 2 .9s1.5-.3 2-.9c.5-.6.7-1.5.7-2.5v-7.4h3v7.5c0 1.9-.5 3.4-1.6 4.5-1.1 1-2.4 1.6-4.1 1.6s-3-.5-4.1-1.6-1.6-2.5-1.6-4.5v-7.5h3v7.4c0 1 .2 1.9.7 2.5zM-80.2 483.6v-13.4h3V481h5.7v2.7h-8.7zM-59.8 483.6l-1.2-2.9h-5.6l-1.2 2.9H-71l5.8-13.4h2.9l5.8 13.4h-3.3zm-4.1-9.4l-1.7 3.9h3.4l-1.7-3.9zM-44.2 474.7c0 2.1-.8 3.5-2.5 4.2l3.4 4.8H-47l-3-4.3h-2.1v4.3h-3v-13.4h5.1c2.1 0 3.6.4 4.5 1.1.8.6 1.3 1.7 1.3 3.3zm-3.6 1.6c.4-.3.6-.9.6-1.6 0-.7-.2-1.2-.6-1.5-.4-.3-1.1-.4-2-.4H-52v4h2.2c.9 0 1.6-.2 2-.5z"/></g><g id="XMLID_33_"><text transform="translate(-113.626 496.92)" class="st2 st10 st11 st12">CAMP</text></g><g><g><path class="st5" d="M-155.3 469.6l-20.6-7.2v42.8l17.4-9.4z"/><path class="st1" d="M-195.7 469.6l19.8-7.2v42.9l-16.6-9.2z"/><g><g><path class="st6" d="M-175.9 460l-22 8 3.5 29.4 18.5 10.3 19.3-10.5 3.6-29.2-22.9-8zm17.3 35.9l-17.4 9.4-16.6-9.2-3.2-26.4 19.7-7.2 20.6 7.2-3.1 26.2z"/></g></g></g><g id="XMLID_15_"><path id="XMLID_32_" class="st7" d="M-175.9 493.6h-12.3l6.1-12 6.2-12.1 12.4 24.1z"/><path id="XMLID_29_" class="st7" d="M-177.8 465.8l1.9 3.7"/><path id="XMLID_17_" class="st7" d="M-173.9 465.8l-2 3.7"/><path id="XMLID_16_" class="st7" d="M-175.9 490.3h-5.9l3-5.8 2.9-5.7 6 11.5z"/></g><g><g><defs><path id="SVGID_7_" d="M-194.5 462.7h18.6v32.7h-18.6z"/></defs><clipPath id="SVGID_8_"><use xlink:href="#SVGID_7_" overflow="visible"/></clipPath><g id="XMLID_3_" class="st13"><path id="XMLID_14_" class="st3" d="M-175.9 493.6h-12.3l6.1-12 6.2-12.1 12.4 24.1z"/><path id="XMLID_13_" class="st3" d="M-177.8 465.8l1.9 3.7"/><path id="XMLID_12_" class="st3" d="M-173.9 465.8l-2 3.7"/><path id="XMLID_10_" class="st3" d="M-175.9 490.3h-5.9l3-5.7 2.9-5.8 6 11.5z"/></g></g></g></g><g><g><path class="st1" d="M-155.3 469.4l-20.6-7.2V505l17.4-9.4z"/><path class="st1" d="M-195.7 469.4l19.8-7.2v42.9l-16.6-9.3z"/><g><g><path class="st2" d="M-175.9 459.8l-22 8 3.5 29.4 18.5 10.3 19.3-10.5 3.6-29.2-22.9-8zm17.3 35.8L-176 505l-16.6-9.2-3.2-26.4 19.7-7.2 20.6 7.2-3.1 26.2z"/></g></g></g><g id="XMLID_45_"><path id="XMLID_49_" class="st3" d="M-175.9 493.4h-12.3l6.1-12.1 6.2-12 12.4 24.1z"/><path id="XMLID_48_" class="st3" d="M-177.8 465.6l1.9 3.7"/><path id="XMLID_47_" class="st3" d="M-173.9 465.6l-2 3.7"/><path id="XMLID_46_" class="st3" d="M-175.9 490.1h-5.9l3-5.8 2.9-5.8 6 11.6z"/></g><g><g><defs><path id="SVGID_9_" d="M-194.5 462.5h18.6v32.7h-18.6z"/></defs><clipPath id="SVGID_10_"><use xlink:href="#SVGID_9_" overflow="visible"/></clipPath><g id="XMLID_40_" class="st14"><path id="XMLID_44_" class="st3" d="M-175.9 493.4h-12.3l6.1-12.1 6.2-12 12.4 24.1z"/><path id="XMLID_43_" class="st3" d="M-177.8 465.6l1.9 3.7"/><path id="XMLID_42_" class="st3" d="M-173.9 465.6l-2 3.7"/><path id="XMLID_41_" class="st3" d="M-175.9 490.1h-5.9l3-5.8 2.9-5.8 6 11.6z"/></g></g></g></g></g></svg>