<?xml version="1.0" encoding="utf-8"?>
<!-- Generator: Adobe Illustrator 16.0.0, SVG Export Plug-In . SVG Version: 6.00 Build 0)  -->
<!DOCTYPE svg PUBLIC "-//W3C//DTD SVG 1.1//EN" "http://www.w3.org/Graphics/SVG/1.1/DTD/svg11.dtd">
<svg version="1.1" id="page" xmlns="http://www.w3.org/2000/svg" xmlns:xlink="http://www.w3.org/1999/xlink" x="0px" y="0px"
	 width="240px" height="277.088px" viewBox="0 0 240 277.088" enable-background="new 0 0 240 277.088" xml:space="preserve">
<g>
</g>
<g>
	<g>
		<path fill="#FFFFFF" d="M235.857,99.784h-9.201V59.556h-89.709l38.696-38.698c0.695,0.195,1.463,0.344,2.218,0.344
			c4.564,0,8.232-3.691,8.232-8.222c0-4.517-3.668-8.196-8.232-8.196c-4.537,0-8.205,3.68-8.205,8.196
			c0,0.792,0.151,1.533,0.377,2.251l-44.33,44.325h-10.627L70.759,15.23c0.202-0.718,0.353-1.451,0.353-2.251
			c0-4.517-3.68-8.196-8.216-8.196c-4.552,0-8.208,3.68-8.208,8.196c0,4.53,3.656,8.222,8.208,8.222
			c0.792,0,1.524-0.148,2.241-0.344l38.698,38.698H13.899v40.229H4.143v66.484h9.757v106.036h212.757V166.269h9.201V99.784z
			 M202.909,248.551H37.659V83.302h165.25V248.551z"/>
		<g>
			<path fill="#FFFFFF" d="M52.684,193.565v36.9h134.558v-36.9H52.684z M84.375,221.18H61.897v-18.382h22.477V221.18z
				 M115.833,221.18H93.361v-18.382h22.472V221.18z M147.309,221.18h-22.5v-18.382h22.5V221.18z M178.784,221.229h-22.5v-18.362
				h22.5V221.229z"/>
			<path fill="#FFFFFF" d="M89.313,100.521c-21.087,0-38.179,17.092-38.179,38.177c0,21.09,17.092,38.204,38.179,38.204
				c21.102,0,38.195-17.114,38.195-38.204C127.508,117.613,110.415,100.521,89.313,100.521z M89.313,167.725
				c-16.02,0-29.015-12.987-29.015-29.026c0-16.012,12.995-29.022,29.015-29.022c16.033,0,29.018,13.011,29.018,29.022
				C118.331,154.737,105.346,167.725,89.313,167.725z"/>
			<path fill="#FFFFFF" d="M162.952,113.124c-14.257,0-25.816,11.558-25.816,25.823c0,14.265,11.559,25.832,25.816,25.832
				c14.267,0,25.838-11.567,25.838-25.832C188.79,124.682,177.219,113.124,162.952,113.124z M162.952,156.979
				c-9.96,0-18.04-8.07-18.04-18.031c0-9.972,8.08-18.044,18.04-18.044c9.969,0,18.049,8.072,18.049,18.044
				C181.001,148.908,172.921,156.979,162.952,156.979z"/>
		</g>
	</g>
</g>
</svg>
